<?xml version="1.0" encoding="UTF-8" standalone="no"?>
<svg width="451px" height="45px" viewBox="0 0 451 45" version="1.1" xmlns="http://www.w3.org/2000/svg" xmlns:xlink="http://www.w3.org/1999/xlink">
    <!-- Generator: Sketch 40.3 (33839) - http://www.bohemiancoding.com/sketch -->
    <title>brisbanetimes</title>
    <desc>Created with Sketch.</desc>
    <defs></defs>
    <g id="Page-1" stroke="none" stroke-width="1" fill="none" fill-rule="evenodd">
        <g id="brisbanetimes">
            <path d="M389.1,30.7 C383.9,30.7 382.4,34.5 382.4,37.8 C382.4,41.7 384.5,44.7 388.9,44.7 C393.4,44.7 395.6,41.5 395.6,37.6 C395.5,34.8 394.4,30.7 389.1,30.7 L389.1,30.7 Z M388.9,42.8 C386.1,42.8 384.9,40.3 384.9,37.6 C384.9,33.5 387.4,32.5 389,32.5 C391.3,32.5 392.8,34.2 392.8,37.5 C392.9,41.5 390.8,42.8 388.9,42.8 L388.9,42.8 Z M364.9,44.2 L367.8,44.2 L367.8,41 L364.9,41 L364.9,44.2 L364.9,44.2 Z M375.8,42.7 C373.2,42.7 372.5,40.2 372.5,37.5 C372.5,36.5 372.5,32.5 375.9,32.5 C378.3,32.5 378.5,34.7 378.5,35.3 L381,35.3 C380.9,34.6 380.9,33.5 379.9,32.4 C378.7,31 376.7,30.8 375.9,30.8 C373.3,30.8 369.9,32.4 369.9,37.9 C369.9,40.6 370.7,42 371.5,42.9 C372.9,44.4 374.9,44.6 375.8,44.6 C379,44.6 381,42.4 381.1,39.9 L378.6,39.9 C378.6,41.1 377.9,42.7 375.8,42.7 L375.8,42.7 Z M449.9,41.7 L449.9,31 L447.4,31 L447.4,38.5 C447.4,39.2 447.4,40.2 446.8,41 C446.1,42.1 444.9,42.5 443.7,42.5 C441.2,42.5 440.9,40.9 440.9,39.6 L440.9,31.1 L438.4,31.1 L438.4,40 C438.4,42.6 439.9,44.5 443.2,44.5 C446,44.5 446.9,43 447.4,42.1 L447.5,44.4 L450.1,44.4 C450,43.5 449.9,42 449.9,41.7 L449.9,41.7 Z M436.1,34.6 C436.1,34 436.1,33.4 435.7,32.6 C435,31.3 432.9,30.7 431,30.7 C429.6,30.7 427.8,31 426.8,32.1 C426,33 426,33.9 425.9,34.6 L428.4,34.6 C428.4,34.1 428.6,32.4 431,32.4 C431.7,32.4 432.8,32.6 433.3,33.3 C433.8,33.9 433.8,34.6 433.8,36.2 C433,36.1 432.6,36.1 432,36.1 C431,36.1 428.9,36.2 427.4,37 C425.5,38.1 425.1,39.8 425.1,40.9 C425.1,43.1 426.7,44.8 429.7,44.8 C430.8,44.8 432.6,44.6 433.8,42.4 C433.8,43.1 433.9,43.7 434,44.4 L436.2,44.4 C436,43.1 436,41.3 436,41.1 L436.1,34.6 L436.1,34.6 Z M433.1,41.2 C432.5,42.1 431.6,42.6 430.3,42.6 C428.1,42.6 427.6,41.2 427.6,40.3 C427.6,37.6 431.3,37.6 432.3,37.6 C432.9,37.6 433.3,37.6 433.7,37.7 C433.6,39.6 433.6,40.4 433.1,41.2 L433.1,41.2 Z M412.9,30.7 C410,30.7 408.9,32.4 408.5,33.2 C408,32.2 407.1,30.7 404.2,30.7 C403.1,30.7 401.3,30.9 400,33 L400,31.1 L397.5,31.1 L397.6,32.9 L397.6,44.3 L400.1,44.3 L400.1,36.8 C400.1,36 400.1,34.9 400.7,34.1 C401,33.7 401.9,32.7 403.6,32.7 C405.5,32.7 406.5,34 406.5,35.6 L406.5,44.3 L409,44.3 L409,36.9 C409,36.3 409,34.9 409.6,34.1 C409.9,33.6 410.8,32.7 412.4,32.7 C413.7,32.7 414.5,33.3 414.9,33.9 C415.1,34.2 415.3,34.7 415.3,35.9 L415.3,44.4 L417.8,44.4 L417.8,35.3 C417.7,31.4 414.8,30.7 412.9,30.7 L412.9,30.7 Z M419.8,44.2 L422.7,44.2 L422.7,41 L419.8,41 L419.8,44.2 L419.8,44.2 Z M245.1,6.6 L251.9,6.6 L251.9,0.4 L245.1,0.4 L245.1,6.6 L245.1,6.6 Z M245.7,43.9 L251.4,43.9 L251.4,13.6 L245.7,13.6 L245.7,43.9 L245.7,43.9 Z M233.7,5.3 L228.1,7.1 L228.1,13.4 L222.7,13.4 L222.7,17.6 L228.1,17.6 L228.1,37.8 C228.1,42.8 230.6,44.3 235.7,44.3 C237.7,44.3 239.4,44.1 240.4,43.9 L240.4,39.5 C239.9,39.6 238.8,39.8 237.7,39.8 C233.7,39.8 233.7,37.3 233.7,35.8 L233.7,17.6 L240.4,17.6 L240.4,13.4 L233.7,13.4 L233.7,5.3 L233.7,5.3 Z M321.7,12.8 C320,12.8 316.3,13 313.5,15 C308.7,18.3 307.5,23.3 307.5,29.3 C307.5,38.9 312,44.8 321.5,44.8 C327.6,44.8 330.6,42.3 331.9,40.8 C334.1,38.4 334.3,36 334.5,34.5 L328.8,34.5 C328.3,38.9 325.4,40.8 321.7,40.8 C315.5,40.8 312.9,36.1 313,29.9 L334.7,29.9 C335,24.8 335.3,12.8 321.7,12.8 L321.7,12.8 Z M329.1,25.8 L313.4,25.8 C313.5,19.1 318,16.9 321.6,16.9 C328.6,16.9 329.1,22.9 329.1,25.8 L329.1,25.8 Z M292.2,12.8 C285.5,12.8 283,16.8 282,18.5 C280.9,16.3 278.8,12.8 272.1,12.8 C269.5,12.8 265.4,13.2 262.5,18 L262.5,13.6 L256.8,13.6 L256.9,17.6 L256.9,43.9 L262.6,43.9 L262.6,26.7 C262.6,24.8 262.7,22.3 263.9,20.5 C264.6,19.6 266.7,17.2 270.5,17.2 C275,17.2 277.1,20.1 277.1,23.8 L277.1,43.9 L282.8,43.9 L282.8,26.9 C282.8,25.6 282.8,22.2 284.1,20.4 C284.9,19.3 286.9,17.2 290.5,17.2 C293.4,17.2 295.3,18.5 296.3,19.9 C296.8,20.7 297.3,21.8 297.3,24.5 L297.3,44 L303,44 L303,23.6 C303.3,14.6 296.5,12.8 292.2,12.8 L292.2,12.8 Z M360.1,29.4 C358.3,27.7 356.5,27.2 348.1,25.2 C346.5,24.8 343.8,24.1 343.8,21.3 C343.8,16.9 349.1,16.9 349.9,16.9 C351.9,16.9 355.9,17.3 355.7,21.9 L361.5,21.9 C361.5,20.6 361.5,19.2 360.7,17.5 C358.9,13.9 353.6,12.8 349.8,12.8 C342.8,12.8 338,16.4 338,22 C338,28.3 343.3,29.6 349.6,31.1 C354.1,32.1 356.2,32.7 356.2,35.6 C356.2,36.6 355.8,37.7 355.2,38.4 C354,39.9 352.3,40.3 349.9,40.3 C344.4,40.3 343.2,37.1 343.3,34.8 L337.3,34.8 C337.2,42.1 343,44.7 349.1,44.7 C352.2,44.7 355.4,44.3 358.1,42.6 C360.3,41.2 362.2,38.3 362.2,34.9 C362.4,33.1 361.8,31 360.1,29.4 L360.1,29.4 Z" id="Shape" fill="#FFFFFF"></path>
            <path d="M17.5,13 C15.9,13 11.9,13.1 8.9,17.1 L8.9,0.4 L0,0.4 L0,44 L8.6,44 C8.8,42.1 8.8,40.7 8.9,39.7 C11.7,44.5 16.5,44.6 18.1,44.6 C24.2,44.6 30.8,40.6 30.8,29.2 C30.8,18.9 24.9,13 17.5,13 L17.5,13 Z M15.5,38.7 C11.5,38.7 8.5,35.4 8.5,28.4 C8.5,26.5 8.5,19 15.1,19 C21.5,19 21.7,27 21.7,29.5 C21.7,31 21.7,38.7 15.5,38.7 L15.5,38.7 Z M42.2,19.2 L42,13.3 L33.6,13.3 C33.8,15.1 34,19.5 34,20.9 L34,43.9 L43,43.9 L43,28.9 C43,25.1 43.5,20.4 52.6,21.3 L52.6,13.3 C45.3,12.9 43.3,16.6 42.2,19.2 L42.2,19.2 Z M54.2,8.1 L63.7,8.1 L63.7,0.3 L54.2,0.3 L54.2,8.1 L54.2,8.1 Z M54.5,43.9 L63.4,43.9 L63.4,13.4 L54.5,13.4 L54.5,43.9 L54.5,43.9 Z M84.6,25.8 L79.2,24.3 C76.6,23.6 75,23.2 75,21.1 C75,19.2 76.8,18.1 79.2,18.1 C80.6,18.1 83.3,18.3 83.5,21.7 L91.6,21.7 C91.4,15.6 86.3,12.7 80,12.7 C72.1,12.7 66.7,16.3 66.7,22.2 C66.7,28.4 71.9,29.9 74.4,30.7 L79.9,32.2 C83.4,33.2 84.1,34.3 84.1,35.6 C84.1,37.4 82.6,39.2 79.4,39.2 C75.7,39.2 74.5,37 74.3,35 L65.9,35 C66,36.5 66.1,38.9 68.1,41 C70.9,43.9 74.6,44.7 78.5,44.7 C88,44.7 92.5,39.4 92.5,34.2 C92.8,30.2 90.2,27.3 84.6,25.8 L84.6,25.8 Z M113.9,13 C112.3,13 108.3,13.1 105.3,17.1 L105.3,0.4 L96.4,0.4 L96.4,44 L105,44 C105.2,42.1 105.2,40.7 105.3,39.7 C108.1,44.5 112.9,44.6 114.5,44.6 C120.6,44.6 127.2,40.6 127.2,29.2 C127.1,18.9 121.3,13 113.9,13 L113.9,13 Z M111.9,38.7 C107.9,38.7 104.9,35.4 104.9,28.4 C104.9,26.5 104.9,19 111.5,19 C117.9,19 118.1,27 118.1,29.5 C118.1,31 118.1,38.7 111.9,38.7 L111.9,38.7 Z M154.8,23.9 C154.8,22.5 154.7,18.9 152.7,16.4 C149.7,12.9 144.4,12.5 141.9,12.5 C139,12.5 135.5,13 132.7,15 C129.5,17.3 129.3,20.6 129.3,22.2 L138,22.2 C138,21.5 138,20.5 138.7,19.5 C139.5,18.4 140.8,17.8 142.1,17.8 C142.9,17.8 145.3,18.1 146.1,20.3 C146.5,21.4 146.5,22.4 146.5,24.3 C143.6,24.3 138.2,24.3 134.5,26 C128.9,28.6 128.1,33.1 128.1,35.5 C128.1,37.9 128.9,40.4 130.7,42.2 C131.9,43.3 133.9,44.6 138.3,44.6 C140,44.6 144,44.6 147.4,39.7 C147.4,40.6 147.4,42 147.7,43.9 L155.8,43.9 C155.3,41.4 155.1,38.8 155.1,36.2 L154.8,23.9 L154.8,23.9 Z M144.7,37.1 C143.9,38.1 142.5,38.9 140.9,38.9 C137.9,38.9 136.6,36.6 136.6,34.5 C136.6,30.9 140.7,29.1 146.4,29.5 C146.4,32.8 146.2,35.2 144.7,37.1 L144.7,37.1 Z M177.2,12.6 C170.6,12.6 168.2,16.5 167.3,17.9 L167.1,13.3 L158.6,13.3 C158.8,15.4 158.8,18.7 158.8,18.9 L158.8,44 L167.8,44 L167.8,26 C167.8,23.6 168.3,22.1 168.9,21.3 C169.9,19.8 171.6,18.9 173.5,18.9 C175.8,18.9 177.2,20.2 177.8,21.5 C178.3,22.5 178.3,23.6 178.3,24.8 L178.3,43.8 L187.4,43.8 L187.4,27.4 C187.4,21.7 187.2,20.1 186.6,18.3 C185.7,16.2 183.1,12.6 177.2,12.6 L177.2,12.6 Z M218.1,19.8 C215.3,14.1 210.2,12.4 205.8,12.4 C202.5,12.4 199.6,13.4 197.3,14.9 C192.2,18.5 191,24.4 191,29.3 C191,34.2 192.1,38.3 194.9,41.2 C198.1,44.5 203,45 205.6,45 C210.1,45 214,43.8 216.3,41.4 C218.8,38.8 219.1,36.2 219.2,34.8 L211,34.8 C210.2,38.2 207.9,39 205.7,39 C199.5,39 199.5,32.8 199.5,30.8 L219.9,30.8 C220,28.4 220.2,23.9 218.1,19.8 L218.1,19.8 Z M199.8,25.3 C200,21.7 201.6,18.5 205.5,18.5 C210.7,18.5 210.8,23.9 210.8,25.3 L199.8,25.3 L199.8,25.3 Z" id="Shape" fill="#55FF55"></path>
        </g>
    </g>
</svg>